<svg id="booking" xmlns="http://www.w3.org/2000/svg" width="17.102" height="17.102" viewBox="0 0 17.102 17.102">
  <path id="Path_100" data-name="Path 100" d="M15.259,1.073H13.882V.5a.5.5,0,1,0-1,0v.572H10.662V.5a.5.5,0,1,0-1,0v.572H7.442V.5a.5.5,0,1,0-1,0v.572H4.222V.5a.5.5,0,1,0-1,0v.572H1.843A1.845,1.845,0,0,0,0,2.916V15.259A1.845,1.845,0,0,0,1.843,17.1H15.259A1.845,1.845,0,0,0,17.1,15.259V2.916a1.845,1.845,0,0,0-1.843-1.843Zm-13.416,1H3.22v.572a.5.5,0,1,0,1,0V2.075H6.44v.572a.5.5,0,1,0,1,0V2.075H9.66v.572a.5.5,0,1,0,1,0V2.075H12.88v.572a.5.5,0,1,0,1,0V2.075h1.377a.842.842,0,0,1,.841.841V4.293H1V2.916a.842.842,0,0,1,.841-.841ZM15.259,16.1H1.843A.842.842,0,0,1,1,15.259V5.3H16.1v9.964A.842.842,0,0,1,15.259,16.1Z" transform="translate(0)"/>
  <path id="Path_101" data-name="Path 101" d="M74.947,208.867H72.8a.5.5,0,0,0-.5.5v2.147a.5.5,0,0,0,.5.5h2.147a.5.5,0,0,0,.5-.5v-2.147A.5.5,0,0,0,74.947,208.867Zm-.5,2.147H73.3v-1.145h1.145Z" transform="translate(-69.884 -201.89)"/>
  <path id="Path_102" data-name="Path 102" d="M348.081,208.867h-2.147a.5.5,0,0,0-.5.5v2.147a.5.5,0,0,0,.5.5h2.147a.5.5,0,0,0,.5-.5v-2.147A.5.5,0,0,0,348.081,208.867Zm-.5,2.147h-1.145v-1.145h1.145Z" transform="translate(-333.895 -201.89)"/>
  <path id="Path_103" data-name="Path 103" d="M74.947,337.4H72.8a.5.5,0,0,0-.5.5v2.147a.5.5,0,0,0,.5.5h2.147a.5.5,0,0,0,.5-.5V337.9A.5.5,0,0,0,74.947,337.4Zm-.5,2.147H73.3V338.4h1.145Z" transform="translate(-69.884 -326.13)"/>
  <path id="Path_104" data-name="Path 104" d="M348.081,337.4h-2.147a.5.5,0,0,0-.5.5v2.147a.5.5,0,0,0,.5.5h2.147a.5.5,0,0,0,.5-.5V337.9A.5.5,0,0,0,348.081,337.4Zm-.5,2.147h-1.145V338.4h1.145Z" transform="translate(-333.895 -326.13)"/>
  <path id="Path_105" data-name="Path 105" d="M211.513,337.4h-2.147a.5.5,0,0,0-.5.5v2.147a.5.5,0,0,0,.5.5h2.147a.5.5,0,0,0,.5-.5V337.9A.5.5,0,0,0,211.513,337.4Zm-.5,2.147h-1.145V338.4h1.145Z" transform="translate(-201.888 -326.13)"/>
  <path id="Path_106" data-name="Path 106" d="M209.342,218.426l-1.164,1.164-.4-.4a.5.5,0,0,0-.709.709l.759.759a.5.5,0,0,0,.709,0l1.518-1.518a.5.5,0,0,0-.709-.709Z" transform="translate(-200.007 -210.989)" fill="#00b32a"/>
</svg>
