<svg xmlns="http://www.w3.org/2000/svg" width="22" height="22.001" viewBox="0 0 22 22.001">
  <g id="Group_2456" data-name="Group 2456" transform="translate(-27 -153)">
    <path id="Union_1" data-name="Union 1" d="M1.1,22A1.1,1.1,0,0,1,0,20.9v-.733a1.1,1.1,0,0,1,1.1-1.1h.367V1.467A1.466,1.466,0,0,1,2.933,0h9.534a1.467,1.467,0,0,1,1.467,1.467v9.9H15.4a1.466,1.466,0,0,1,1.467,1.466v2.934a.367.367,0,0,0,.734,0V8a1.1,1.1,0,0,1-.734-1.032V3.3a1.1,1.1,0,0,1,1.1-1.1h1.467a1.1,1.1,0,0,1,1.032.734h.8A.734.734,0,0,1,22,3.667V4.4a.734.734,0,0,1-.733.734h-.733V6.967A1.1,1.1,0,0,1,19.8,8v7.768a2.567,2.567,0,0,1-5.134,0v-2.2h-.733v5.5H14.3a1.1,1.1,0,0,1,1.1,1.1V20.9A1.1,1.1,0,0,1,14.3,22ZM.734,20.167V20.9a.367.367,0,0,0,.366.367H14.3a.367.367,0,0,0,.366-.367v-.733A.367.367,0,0,0,14.3,19.8H1.1A.367.367,0,0,0,.734,20.167Zm1.466-1.1h11V10.634H2.2Zm11.734-6.233h.733a.734.734,0,0,1,.734.734v2.2a1.833,1.833,0,1,0,3.667,0v-7.7h-.733v7.7a1.1,1.1,0,0,1-2.2,0V12.833A.733.733,0,0,0,15.4,12.1H13.934ZM2.2,1.467V9.9h11V1.467a.734.734,0,0,0-.733-.734H2.933A.734.734,0,0,0,2.2,1.467ZM17.6,3.3V6.967a.366.366,0,0,0,.366.366h1.467a.366.366,0,0,0,.366-.366V3.3a.367.367,0,0,0-.366-.367H17.967A.367.367,0,0,0,17.6,3.3Zm2.933,1.1h.733V3.667h-.733Zm-10.266,11a1.1,1.1,0,1,1,1.1,1.1A1.1,1.1,0,0,1,10.267,15.4Zm.733,0a.367.367,0,1,0,.367-.366A.368.368,0,0,0,11,15.4Zm-.733-2.933a1.1,1.1,0,1,1,1.1,1.1A1.1,1.1,0,0,1,10.267,12.467Zm.733,0a.367.367,0,1,0,.367-.366A.367.367,0,0,0,11,12.467ZM4.034,5.5A3.667,3.667,0,0,1,7.7,1.833a.367.367,0,0,1,0,.734A2.933,2.933,0,1,0,10.634,5.5a2.9,2.9,0,0,0-.305-1.3.367.367,0,0,1,.657-.327A3.667,3.667,0,1,1,4.034,5.5Z" transform="translate(27 153)"/>
    <path id="Path_259" data-name="Path 259" d="M18.781,9.555a.367.367,0,1,0-.629-.378l-1.1,1.833a.367.367,0,0,0,.314.556h1.552l-.766,1.278a.367.367,0,1,0,.629.378l1.1-1.833a.367.367,0,0,0-.314-.556H18.015Z" transform="translate(16.233 147.3)" fill="#00b32a"/>
  </g>
</svg>
