<svg id="menu" xmlns="http://www.w3.org/2000/svg" width="15.967" height="15.967" viewBox="0 0 15.967 15.967">
  <path id="Path_119" data-name="Path 119" d="M5.426,7.484H2.058A2.061,2.061,0,0,1,0,5.426V2.058A2.061,2.061,0,0,1,2.058,0H5.426A2.061,2.061,0,0,1,7.484,2.058V5.426A2.061,2.061,0,0,1,5.426,7.484ZM2.058,1A1.061,1.061,0,0,0,1,2.058V5.426a1.061,1.061,0,0,0,1.06,1.06H5.426a1.061,1.061,0,0,0,1.06-1.06V2.058A1.061,1.061,0,0,0,5.426,1Z"/>
  <path id="Path_120" data-name="Path 120" d="M277.426,7.484h-3.368A2.061,2.061,0,0,1,272,5.426V2.058A2.061,2.061,0,0,1,274.058,0h3.368a2.06,2.06,0,0,1,2.058,2.058V5.426A2.06,2.06,0,0,1,277.426,7.484ZM274.058,1A1.061,1.061,0,0,0,273,2.058V5.426a1.061,1.061,0,0,0,1.06,1.06h3.368a1.061,1.061,0,0,0,1.06-1.06V2.058A1.061,1.061,0,0,0,277.426,1Z" transform="translate(-263.518)"/>
  <path id="Path_121" data-name="Path 121" d="M275.742,279.484a3.742,3.742,0,1,1,3.742-3.742A3.746,3.746,0,0,1,275.742,279.484Zm0-6.486a2.744,2.744,0,1,0,2.744,2.744A2.747,2.747,0,0,0,275.742,273Z" transform="translate(-263.518 -263.518)" fill="#00b32a"/>
  <path id="Path_122" data-name="Path 122" d="M5.426,279.484H2.058A2.06,2.06,0,0,1,0,277.426v-3.368A2.061,2.061,0,0,1,2.058,272H5.426a2.061,2.061,0,0,1,2.058,2.058v3.368A2.06,2.06,0,0,1,5.426,279.484ZM2.058,273A1.061,1.061,0,0,0,1,274.058v3.368a1.061,1.061,0,0,0,1.06,1.06H5.426a1.061,1.061,0,0,0,1.06-1.06v-3.368A1.061,1.061,0,0,0,5.426,273Z" transform="translate(0 -263.518)"/>
</svg>
