<svg id="wallet" xmlns="http://www.w3.org/2000/svg" width="18.353" height="18.353" viewBox="0 0 18.353 18.353">
  <g id="Group_2244" data-name="Group 2244" transform="translate(0 0)">
    <g id="Group_2243" data-name="Group 2243">
      <path id="Path_114" data-name="Path 114" d="M17.522,9.254V6.674a1.665,1.665,0,0,0-1.536-1.655L13.59.835a1.651,1.651,0,0,0-2.265-.61L3.114,5.006H1.671A1.67,1.67,0,0,0,0,6.674V16.685a1.67,1.67,0,0,0,1.668,1.668H15.853a1.67,1.67,0,0,0,1.668-1.668V14.105a1.249,1.249,0,0,0,.834-1.174v-2.5A1.249,1.249,0,0,0,17.522,9.254Zm-2.5-4.248H11.381l2.727-1.587ZM13.693,2.694,9.723,5.006H8.076l5.205-3.031ZM11.746.946a.807.807,0,0,1,.62-.083.818.818,0,0,1,.5.387v0L6.418,5.006H4.772Zm4.942,15.739a.835.835,0,0,1-.834.834H1.671a.835.835,0,0,1-.834-.834V6.674a.835.835,0,0,1,.834-.834H15.853a.835.835,0,0,1,.834.834v2.5h-2.5a2.5,2.5,0,0,0,0,5.005h2.5Zm.834-3.754a.417.417,0,0,1-.417.417h-2.92a1.668,1.668,0,0,1,0-3.337H17.1a.417.417,0,0,1,.417.417Z" transform="translate(-0.003 0)"/>
      <path id="Path_115" data-name="Path 115" d="M342.171,277.341a.834.834,0,1,0,.834.834A.835.835,0,0,0,342.171,277.341Z" transform="translate(-327.99 -266.496)" fill="#00b32a"/>
    </g>
  </g>
</svg>
